<svg xmlns="http://www.w3.org/2000/svg" viewBox="0 0 20 19" width="20" height="19">
	<style>
		tspan { white-space:pre }
		.shp0 { fill: #82bb26 } 
	</style>
	<g id="Icon_feather-edit-3">
		<g id="Path_61">
			<path id="Layer" class="shp0" d="M19.02 18.59L9.99 18.59C9.65 18.59 9.38 18.32 9.38 17.98C9.38 17.64 9.65 17.37 9.99 17.37L19.02 17.37C19.37 17.37 19.64 17.64 19.64 17.98C19.63 18.32 19.37 18.59 19.02 18.59Z" />
		</g>
		<g id="Path_62">
			<path id="Layer" fill-rule="evenodd" class="shp0" d="M0.96 18.59C0.8 18.59 0.64 18.52 0.52 18.41C0.38 18.26 0.31 18.04 0.37 17.83L1.37 13.87C1.39 13.76 1.45 13.66 1.52 13.59L14.07 1.21C15.15 0.16 16.88 0.15 17.96 1.21C18.47 1.72 18.76 2.4 18.77 3.13C18.77 3.85 18.48 4.53 17.97 5.04L5.41 17.41C5.33 17.49 5.23 17.54 5.13 17.57L1.11 18.56C1.06 18.58 1.02 18.59 0.96 18.59ZM2.52 14.33L1.81 17.15L4.67 16.44L17.09 4.19C17.38 3.91 17.53 3.53 17.53 3.13C17.53 2.72 17.38 2.35 17.09 2.06C16.5 1.48 15.53 1.48 14.95 2.06L2.52 14.33ZM14.51 1.64L14.52 1.64L14.51 1.64Z" />
		</g>
	</g>
</svg>